<svg xmlns="http://www.w3.org/2000/svg" xmlns:svg="http://www.w3.org/2000/svg" xmlns:xlink="http://www.w3.org/1999/xlink" id="svg5" width="64" height="64" version="1.1" viewBox="0 0 16.933 16.933"><defs id="defs2"><linearGradient id="wood_black_accent"><stop style="stop-color:#ba845f;stop-opacity:1" id="stop5970" offset="0"/></linearGradient><linearGradient id="wood_black_fill"><stop style="stop-color:#995e33;stop-opacity:1" id="stop5940" offset="0"/></linearGradient><linearGradient id="wood_white_shade"><stop style="stop-color:#d0b793;stop-opacity:1" id="stop3347" offset="0"/></linearGradient><linearGradient id="wood_white_fill"><stop style="stop-color:#f9e7d2;stop-opacity:1" id="stop3028" offset="0"/></linearGradient><linearGradient id="white_fill"><stop style="stop-color:#fff;stop-opacity:1" id="stop2367" offset="0"/></linearGradient><linearGradient id="white_shade" gradientTransform="translate(-5.8013919e-8,2.1166665)"><stop style="stop-color:#ccc;stop-opacity:1" id="stop45894" offset="0"/></linearGradient><linearGradient id="linearGradient45642"><stop style="stop-color:#000;stop-opacity:.2" id="stop45640" offset="0"/></linearGradient><linearGradient id="black_accent" gradientTransform="scale(0.07000432)"><stop style="stop-color:#8c8c8c;stop-opacity:1" id="stop52163" offset="0"/></linearGradient><linearGradient id="black_fill" gradientTransform="matrix(0.07000432,0,0,0.07000432,-53.975025,2.1166665)"><stop style="stop-color:#595959;stop-opacity:1" id="stop51990" offset="0"/></linearGradient><linearGradient id="linearGradient5962" x1="4.762" x2="12.171" y1="13.758" y2="13.758" gradientUnits="userSpaceOnUse" xlink:href="#black_fill"/><linearGradient id="linearGradient5964" x1="40.766" x2="48.134" y1="8.202" y2="8.202" gradientUnits="userSpaceOnUse" xlink:href="#black_fill"/><linearGradient id="linearGradient5996" x1="6.879" x2="10.054" y1="2.91" y2="2.91" gradientUnits="userSpaceOnUse" xlink:href="#black_accent"/><linearGradient id="linearGradient5998" x1="4.762" x2="6.879" y1="13.626" y2="13.626" gradientUnits="userSpaceOnUse" xlink:href="#black_accent"/><linearGradient id="linearGradient6000" x1="40.412" x2="44.979" y1="8.599" y2="8.599" gradientUnits="userSpaceOnUse" xlink:href="#black_accent"/><linearGradient id="linearGradient20556" x1="4.233" x2="103.049" y1="24.342" y2="24.342" gradientTransform="matrix(1,0,0,1.25,0.79374989,-3.0427069)" gradientUnits="userSpaceOnUse" xlink:href="#linearGradient45642"/></defs><metadata id="metadata505"/><g id="layer6" transform="translate(-35.98333,-17.991665)"><path style="font-variation-settings:normal;vector-effect:none;fill:url(#linearGradient20556);fill-opacity:1;stroke:none;stroke-width:1.25861;stroke-linecap:round;stroke-linejoin:round;stroke-miterlimit:4;stroke-dasharray:none;stroke-dashoffset:0;stroke-opacity:1;-inkscape-stroke:none;stop-color:#000" id="use175066" d="m 5.0270826,14.816665 c 0,0.992188 2.645833,1.322916 4.2333328,1.322916 1.5874976,0 4.2333306,-0.330728 4.2333306,-1.322916 0,-0.992187 -2.778792,-1.322916 -4.2333306,-1.322916 -1.4545399,0 -4.2333328,0.330729 -4.2333328,1.322916 z" class="UnoptimicedTransforms" transform="matrix(1.0937503,0,0,0.99999995,34.718308,17.991665)"/><g id="g9121" style="display:inline" transform="translate(35.983347,17.99167)"><path style="font-variation-settings:normal;display:inline;opacity:1;vector-effect:none;fill:url(#linearGradient5964);fill-opacity:1;stroke:none;stroke-width:1.05833;stroke-linecap:butt;stroke-linejoin:round;stroke-miterlimit:2.4;stroke-dasharray:none;stroke-dashoffset:0;stroke-opacity:1;-inkscape-stroke:none;stop-color:#000;stop-opacity:1" id="path9105" d="m 42.333328,12.964582 c -4.497917,-5.5562497 2.116666,-9.5249991 2.116666,-9.5249991 0,0 6.614582,3.9687494 2.116667,9.5249991" transform="translate(-35.983347)"/><path style="font-variation-settings:normal;display:inline;opacity:1;vector-effect:none;fill:url(#linearGradient6000);fill-opacity:1;stroke:none;stroke-width:1.05833;stroke-linecap:butt;stroke-linejoin:round;stroke-miterlimit:2.4;stroke-dasharray:none;stroke-dashoffset:0;stroke-opacity:1;-inkscape-stroke:none;stop-color:#000;stop-opacity:1" id="path9107" d="M 44.714577,4.2333327 C 42.862494,6.3499991 41.01041,10.847915 44.97916,13.229165 L 42.333327,12.964582 C 38.099994,8.4666648 41.804161,4.497916 44.449994,3.9687495 Z" transform="translate(-35.983347)"/><path style="font-variation-settings:normal;opacity:1;vector-effect:none;fill:none;fill-opacity:1;stroke:#000;stroke-width:1.05833;stroke-linecap:butt;stroke-linejoin:round;stroke-miterlimit:2.4;stroke-dasharray:none;stroke-dashoffset:0;stroke-opacity:1;-inkscape-stroke:none;stop-color:#000;stop-opacity:1" id="path9109" d="m 42.333328,12.964582 c -4.497917,-6.0854163 2.116666,-8.9958325 2.116666,-8.9958325 0,0 6.614582,2.9104162 2.116667,8.9958325" transform="translate(-35.983347)"/><path style="display:inline;opacity:1;fill:url(#linearGradient5962);fill-opacity:1;stroke:none;stroke-width:1.05833;stroke-linecap:round;stroke-linejoin:round;stroke-dasharray:none;stroke-opacity:1" id="path9111" d="m 5.027064,12.699998 c 0,0 -0.2645833,0.529167 -0.2645647,1.5875 1.5874998,0.529167 3.7041663,0.529167 3.7041663,0.529167 0,0 2.1166664,0 3.7041664,-0.529167 -1.9e-5,-1.058333 -0.264602,-1.5875 -0.264602,-1.5875 -1.322917,0.529167 -3.4395831,0.529167 -3.4395831,0.529167 0,0 -2.1166664,0 -3.4395829,-0.529167 z"/><path style="font-variation-settings:normal;opacity:1;vector-effect:none;fill:url(#linearGradient5998);fill-opacity:1;stroke:none;stroke-width:1.05833;stroke-linecap:butt;stroke-linejoin:round;stroke-miterlimit:2.4;stroke-dasharray:none;stroke-dashoffset:0;stroke-opacity:1;-inkscape-stroke:none;stop-color:#000;stop-opacity:1" id="path9113" d="m 5.0270645,12.699998 -0.2645833,1.5875 1.8520826,0.264583 0.2645833,-1.322916 -1.8520826,-0.529167"/><path style="display:inline;opacity:1;fill:none;fill-opacity:1;stroke:#000;stroke-width:1.05833;stroke-linecap:round;stroke-linejoin:round;stroke-dasharray:none;stroke-opacity:1" id="path9115" d="m 5.027064,12.699998 c 0,0 -0.2645833,0.529167 -0.2645647,1.5875 1.5874998,0.529167 3.7041663,0.529167 3.7041663,0.529167 0,0 2.1166664,0 3.7041664,-0.529167 -1.9e-5,-1.058333 -0.264602,-1.5875 -0.264602,-1.5875 -1.322917,0.529167 -3.4395831,0.529167 -3.4395831,0.529167 0,0 -2.1166664,0 -3.4395829,-0.529167 z"/><ellipse style="font-variation-settings:normal;opacity:1;vector-effect:none;fill:url(#linearGradient5996);fill-opacity:1;stroke:#000;stroke-width:1.05833;stroke-linecap:butt;stroke-linejoin:round;stroke-miterlimit:4;stroke-dasharray:none;stroke-dashoffset:0;stroke-opacity:1;-inkscape-stroke:none;stop-color:#000;stop-opacity:1" id="ellipse9117" cx="8.467" cy="2.91" rx="1.058" ry="1.058"/><path style="font-variation-settings:normal;opacity:1;fill:none;fill-opacity:1;stroke:#000;stroke-width:1.05833;stroke-linecap:round;stroke-linejoin:round;stroke-miterlimit:2.4;stroke-dasharray:none;stroke-dashoffset:0;stroke-opacity:1;stop-color:#000;stop-opacity:1" id="path9119" d="m 8.4666469,3.9687495 c 3.1749991,1.5874997 1.0583332,3.7041661 0,4.7624993"/></g></g><g id="layer5" style="display:none" transform="translate(-35.98333,-17.991665)"><ellipse style="display:inline;opacity:1;fill:#000;fill-opacity:1;stroke:none;stroke-width:1.05833;stroke-linecap:round;stroke-linejoin:round;stroke-dasharray:none;stroke-opacity:1" id="ellipse74907" cx="43.921" cy="24.342" rx=".529" ry=".529"/></g></svg>