<svg xmlns="http://www.w3.org/2000/svg" xmlns:svg="http://www.w3.org/2000/svg" xmlns:xlink="http://www.w3.org/1999/xlink" id="svg5" width="64" height="64" version="1.1" viewBox="0 0 16.933 16.933"><defs id="defs2"><linearGradient id="wood_black_accent"><stop style="stop-color:#ba845f;stop-opacity:1" id="stop5970" offset="0"/></linearGradient><linearGradient id="wood_black_fill"><stop style="stop-color:#995e33;stop-opacity:1" id="stop5940" offset="0"/></linearGradient><linearGradient id="wood_white_shade"><stop style="stop-color:#d0b793;stop-opacity:1" id="stop3347" offset="0"/></linearGradient><linearGradient id="wood_white_fill"><stop style="stop-color:#f9e7d2;stop-opacity:1" id="stop3028" offset="0"/></linearGradient><linearGradient id="white_fill"><stop style="stop-color:#fff;stop-opacity:1" id="stop2367" offset="0"/></linearGradient><linearGradient id="white_shade" gradientTransform="translate(-5.8013919e-8,2.1166665)"><stop style="stop-color:#ccc;stop-opacity:1" id="stop45894" offset="0"/></linearGradient><linearGradient id="linearGradient45642"><stop style="stop-color:#000;stop-opacity:.2" id="stop45640" offset="0"/></linearGradient><linearGradient id="black_accent" gradientTransform="scale(0.07000432)"><stop style="stop-color:#8c8c8c;stop-opacity:1" id="stop52163" offset="0"/></linearGradient><linearGradient id="black_fill" gradientTransform="matrix(0.07000432,0,0,0.07000432,-53.975025,2.1166665)"><stop style="stop-color:#595959;stop-opacity:1" id="stop51990" offset="0"/></linearGradient><linearGradient id="linearGradient5944" x1="4.498" x2="12.435" y1="5.806" y2="5.806" gradientUnits="userSpaceOnUse" xlink:href="#black_fill"/><linearGradient id="linearGradient5946" x1="4.233" x2="12.7" y1="13.758" y2="13.758" gradientUnits="userSpaceOnUse" xlink:href="#black_fill"/><linearGradient id="linearGradient5948" x1="41.275" x2="47.625" y1="9.79" y2="9.79" gradientUnits="userSpaceOnUse" xlink:href="#black_fill"/><linearGradient id="linearGradient5974" x1="10.848" x2="12.171" y1="6.085" y2="6.085" gradientUnits="userSpaceOnUse" xlink:href="#black_accent"/><linearGradient id="linearGradient5976" x1="10.583" x2="12.7" y1="13.626" y2="13.626" gradientUnits="userSpaceOnUse" xlink:href="#black_accent"/><linearGradient id="linearGradient5978" x1="9.525" x2="11.642" y1="9.922" y2="9.922" gradientUnits="userSpaceOnUse" xlink:href="#black_accent"/><linearGradient id="linearGradient22025" x1="4.233" x2="103.049" y1="24.342" y2="24.342" gradientTransform="matrix(1,0,0,1.25,0.79374989,-3.0427069)" gradientUnits="userSpaceOnUse" xlink:href="#linearGradient45642"/></defs><metadata id="metadata505"/><g id="layer6" transform="translate(-53.974995,-17.991665)"><path style="font-variation-settings:normal;vector-effect:none;fill:url(#linearGradient22025);fill-opacity:1;stroke:none;stroke-width:1.25861;stroke-linecap:round;stroke-linejoin:round;stroke-miterlimit:4;stroke-dasharray:none;stroke-dashoffset:0;stroke-opacity:1;-inkscape-stroke:none;stop-color:#000" id="use60224-5" d="m 5.0270826,14.816665 c 0,0.992188 2.645833,1.322916 4.2333328,1.322916 1.5874976,0 4.2333306,-0.330728 4.2333306,-1.322916 0,-0.992187 -2.778792,-1.322916 -4.2333306,-1.322916 -1.4545399,0 -4.2333328,0.330729 -4.2333328,1.322916 z" class="UnoptimicedTransforms" transform="matrix(1.215278,0,0,0.99999995,51.569855,17.991665)"/><g id="g67576" style="display:inline" transform="matrix(-1,0,0,1,70.908357,17.99167)"><path style="font-variation-settings:normal;display:inline;opacity:1;vector-effect:none;fill:url(#linearGradient5948);fill-opacity:1;stroke:none;stroke-width:1.05833;stroke-linecap:butt;stroke-linejoin:round;stroke-miterlimit:2.4;stroke-dasharray:none;stroke-dashoffset:0;stroke-opacity:1;-inkscape-stroke:none;stop-color:#000;stop-opacity:1" id="path67556" d="m 41.27498,12.964582 0.529167,-6.3499996 h 5.291666 l 0.529167,6.3499996" transform="translate(-35.983347)"/><path style="font-variation-settings:normal;display:inline;opacity:1;vector-effect:none;fill:url(#linearGradient5978);fill-opacity:1;stroke:none;stroke-width:1.05833;stroke-linecap:butt;stroke-linejoin:round;stroke-miterlimit:2.4;stroke-dasharray:none;stroke-dashoffset:0;stroke-opacity:1;-inkscape-stroke:none;stop-color:#000;stop-opacity:1" id="path67558" d="m 9.5249662,6.8791657 0.5291668,6.3499993 1.5875,-0.264583 -0.529167,-6.3499996 z"/><path style="font-variation-settings:normal;display:inline;opacity:1;vector-effect:none;fill:none;fill-opacity:1;stroke:#000;stroke-width:1.05833;stroke-linecap:butt;stroke-linejoin:round;stroke-miterlimit:2.4;stroke-dasharray:none;stroke-dashoffset:0;stroke-opacity:1;-inkscape-stroke:none;stop-color:#000;stop-opacity:1" id="path67560" d="m 41.27498,12.699998 0.529167,-5.0270824 m 5.291666,0 0.529167,5.0270824" transform="translate(-35.983347)"/><path style="display:inline;opacity:1;fill:url(#linearGradient5946);fill-opacity:1;stroke:none;stroke-width:1.05833;stroke-linecap:round;stroke-linejoin:round;stroke-dasharray:none;stroke-opacity:1" id="path67562" d="m 4.4978974,12.699998 c 0,0 -0.2645833,0.529167 -0.2645647,1.5875 1.5874998,0.529167 4.2333329,0.529167 4.2333329,0.529167 0,0 2.6458334,0 4.2333334,-0.529167 -1.9e-5,-1.058333 -0.264602,-1.5875 -0.264602,-1.5875 -1.322917,0.529167 -3.9687501,0.529167 -3.9687501,0.529167 0,0 -2.645833,0 -3.9687495,-0.529167 z"/><path style="font-variation-settings:normal;display:inline;opacity:1;vector-effect:none;fill:url(#linearGradient5976);fill-opacity:1;stroke:none;stroke-width:1.05833;stroke-linecap:butt;stroke-linejoin:round;stroke-miterlimit:2.4;stroke-dasharray:none;stroke-dashoffset:0;stroke-opacity:1;-inkscape-stroke:none;stop-color:#000;stop-opacity:1" id="path67564" d="m 12.435396,12.699998 0.264583,1.5875 -1.852082,0.264583 -0.264583,-1.322916 1.852082,-0.529167"/><path style="display:inline;opacity:1;fill:none;fill-opacity:1;stroke:#000;stroke-width:1.05833;stroke-linecap:round;stroke-linejoin:round;stroke-dasharray:none;stroke-opacity:1" id="path67566" d="m 4.4978974,12.699998 c 0,0 -0.2645833,0.529167 -0.2645647,1.5875 1.5874998,0.529167 4.2333329,0.529167 4.2333329,0.529167 0,0 2.6458334,0 4.2333334,-0.529167 -1.9e-5,-1.058333 -0.264602,-1.5875 -0.264602,-1.5875 -1.322917,0.529167 -3.9687501,0.529167 -3.9687501,0.529167 0,0 -2.645833,0 -3.9687495,-0.529167 z"/><path style="display:inline;fill:url(#linearGradient5944);fill-opacity:1;stroke:none;stroke-width:1.05833;stroke-linecap:round;stroke-linejoin:round;stroke-dasharray:none;stroke-opacity:1" id="path67568" d="m 5.2916335,3.9687495 c 0,0 -0.7937685,2.3812496 -0.7937499,3.4395828 1.5874991,0.5291676 3.9687796,7e-7 3.9687796,7e-7 0,0 2.3812198,0.5291669 3.9687198,-7e-7 -1.9e-5,-1.0583332 -0.529167,-3.4395828 -0.529167,-3.4395828 -1.322917,0.5291666 -3.4395829,0.2645833 -3.4395829,0.2645833 0,0 -1.8520842,0.2645833 -3.1749996,-0.2645833 z"/><path style="font-variation-settings:normal;display:inline;vector-effect:none;fill:url(#linearGradient5974);fill-opacity:1;stroke:none;stroke-width:1.05833;stroke-linecap:butt;stroke-linejoin:round;stroke-miterlimit:2.4;stroke-dasharray:none;stroke-dashoffset:0;stroke-opacity:1;-inkscape-stroke:none;stop-color:#000" id="path67570" d="m 11.906227,5.2916656 0.264572,2.1166667 -0.79375,0.7937499 -0.529166,-4.2333327 h 0.79375"/><path style="display:inline;fill:none;fill-opacity:1;stroke:#000;stroke-width:1.05833;stroke-linecap:round;stroke-linejoin:round;stroke-dasharray:none;stroke-opacity:1" id="path67572" d="m 4.7625328,3.9687436 c 0,0 -0.2646678,2.3812555 -0.2646492,3.4395887 1.3229165,0.5291666 3.9687796,0.5291673 3.9687796,0.5291673 0,0 2.6458028,-7e-7 3.9687198,-0.5291673 -1.9e-5,-1.0583332 -0.264518,-3.4395887 -0.264518,-3.4395887 0,0 -1.5875,0 -3.7041661,0 -2.1166664,0 -3.7041661,0 -3.7041661,0 z"/><path style="font-variation-settings:normal;opacity:1;fill:none;fill-opacity:1;stroke:#000;stroke-width:1.05833;stroke-linecap:butt;stroke-linejoin:round;stroke-miterlimit:4;stroke-dasharray:none;stroke-dashoffset:0;stroke-opacity:1;stop-color:#000;stop-opacity:1" id="path67574" d="M 7.1437166,3.7041662 6.9971105,6.0854158 M 9.6312714,3.7041662 9.7778775,6.0854158" class="UnoptimicedTransforms" transform="translate(0.07913911,0.00673837)"/></g></g><g id="layer5" style="display:none" transform="translate(-53.974995,-17.991665)"><ellipse style="display:inline;fill:#000;fill-opacity:1;stroke:none;stroke-width:1.05833;stroke-linecap:round;stroke-linejoin:round;stroke-dasharray:none;stroke-opacity:1" id="ellipse74935" cx="61.119" cy="27.781" rx=".529" ry=".529"/><ellipse style="display:inline;fill:#000;fill-opacity:1;stroke:none;stroke-width:1.05833;stroke-linecap:round;stroke-linejoin:round;stroke-dasharray:none;stroke-opacity:1" id="ellipse74937" cx="62.971" cy="27.781" rx=".529" ry=".529"/></g></svg>