<svg xmlns="http://www.w3.org/2000/svg" xmlns:svg="http://www.w3.org/2000/svg" xmlns:xlink="http://www.w3.org/1999/xlink" id="svg5" width="64" height="64" version="1.1" viewBox="0 0 16.933 16.933"><defs id="defs2"><linearGradient id="wood_black_accent"><stop style="stop-color:#ba845f;stop-opacity:1" id="stop5970" offset="0"/></linearGradient><linearGradient id="wood_black_fill"><stop style="stop-color:#995e33;stop-opacity:1" id="stop5940" offset="0"/></linearGradient><linearGradient id="wood_white_shade"><stop style="stop-color:#d0b793;stop-opacity:1" id="stop3347" offset="0"/></linearGradient><linearGradient id="wood_white_fill"><stop style="stop-color:#f9e7d2;stop-opacity:1" id="stop3028" offset="0"/></linearGradient><linearGradient id="white_fill"><stop style="stop-color:#fff;stop-opacity:1" id="stop2367" offset="0"/></linearGradient><linearGradient id="white_shade" gradientTransform="translate(-5.8013919e-8,2.1166665)"><stop style="stop-color:#ccc;stop-opacity:1" id="stop45894" offset="0"/></linearGradient><linearGradient id="linearGradient45642"><stop style="stop-color:#000;stop-opacity:.2" id="stop45640" offset="0"/></linearGradient><linearGradient id="black_accent" gradientTransform="scale(0.07000432)"><stop style="stop-color:#8c8c8c;stop-opacity:1" id="stop52163" offset="0"/></linearGradient><linearGradient id="black_fill" gradientTransform="matrix(0.07000432,0,0,0.07000432,-53.975025,2.1166665)"><stop style="stop-color:#595959;stop-opacity:1" id="stop51990" offset="0"/></linearGradient><linearGradient id="linearGradient2373" x1="25.929" x2="31.75" y1="8.599" y2="8.599" gradientUnits="userSpaceOnUse" xlink:href="#white_fill"/><linearGradient id="linearGradient2375" x1="21.696" x2="30.163" y1="12.965" y2="12.965" gradientUnits="userSpaceOnUse" xlink:href="#white_fill"/><linearGradient id="linearGradient2377" x1="92.075" x2="98.954" y1="8.599" y2="8.599" gradientUnits="userSpaceOnUse" xlink:href="#white_fill"/><linearGradient id="linearGradient2379" x1="23.283" x2="28.575" y1="7.144" y2="7.144" gradientUnits="userSpaceOnUse" xlink:href="#white_fill"/><linearGradient id="linearGradient4090" gradientTransform="translate(-5.8013919e-8,2.1166665)" gradientUnits="userSpaceOnUse" xlink:href="#white_shade"/><linearGradient id="linearGradient4092" gradientTransform="translate(-5.8013919e-8,2.1166665)" gradientUnits="userSpaceOnUse" xlink:href="#white_shade"/><linearGradient id="linearGradient24184" x1="4.233" x2="103.049" y1="24.342" y2="24.342" gradientTransform="matrix(1,0,0,1.25,0.79374989,-3.0427069)" gradientUnits="userSpaceOnUse" xlink:href="#linearGradient45642"/></defs><metadata id="metadata505"/><g id="layer6" transform="translate(-89.958321)"><path style="font-variation-settings:normal;vector-effect:none;fill:url(#linearGradient24184);fill-opacity:1;stroke:none;stroke-width:1.25861;stroke-linecap:round;stroke-linejoin:round;stroke-miterlimit:4;stroke-dasharray:none;stroke-dashoffset:0;stroke-opacity:1;-inkscape-stroke:none;stop-color:#000" id="use60284" d="m 5.0270826,14.816665 c 0,0.992188 2.645833,1.322916 4.2333328,1.322916 1.5874976,0 4.2333306,-0.330728 4.2333306,-1.322916 0,-0.992187 -2.778792,-1.322916 -4.2333306,-1.322916 -1.4545399,0 -4.2333328,0.330729 -4.2333328,1.322916 z" class="UnoptimicedTransforms" transform="matrix(1.215278,0,0,0.99999995,87.553212,9.6337469e-7)"/><g id="g33068" style="display:inline" transform="translate(72.495868)"><path style="font-variation-settings:normal;opacity:1;fill:#a6a6a6;fill-opacity:1;stroke:#000;stroke-width:1.05833;stroke-linecap:round;stroke-linejoin:round;stroke-miterlimit:4;stroke-dasharray:none;stroke-dashoffset:0;stroke-opacity:1;stop-color:#000;stop-opacity:1" id="path33070" d="M 25.929118,1.3229165 V 4.7624993"/><ellipse style="font-variation-settings:normal;display:inline;opacity:1;fill:url(#linearGradient2379);fill-opacity:1;stroke:#000;stroke-width:1.05833;stroke-linecap:round;stroke-linejoin:round;stroke-miterlimit:4;stroke-dasharray:none;stroke-dashoffset:0;stroke-opacity:1;stop-color:#000;stop-opacity:1" id="path37484" cx="25.929" cy="7.144" rx="2.117" ry="2.91"/><path style="font-variation-settings:normal;opacity:1;fill:url(#linearGradient2377);fill-opacity:1;stroke:#000;stroke-width:1.05833;stroke-linecap:round;stroke-linejoin:round;stroke-miterlimit:4;stroke-dasharray:none;stroke-dashoffset:0;stroke-opacity:1;stop-color:#000;stop-opacity:1" id="path37703" d="m 94.720821,11.112498 c 0,0 -2.116666,-1.058333 -2.116666,-3.1749991 0,-1.0583332 1.001019,-2.1166664 2.116666,-2.1166664 2.116667,0 3.704166,1.5874998 3.704166,5.5562495" transform="translate(-72.495869)"/><path style="display:inline;opacity:1;fill:url(#linearGradient2375);fill-opacity:1;stroke:none;stroke-width:1.05833;stroke-linecap:round;stroke-linejoin:round;stroke-dasharray:none;stroke-opacity:1" id="path33048" d="m 21.960404,11.112498 c 0,0 -0.264583,2.116667 -0.264565,3.175 1.587501,0.529167 4.233336,0.529167 4.233336,0.529167 0,0 2.645835,0 4.233335,-0.529167 -1.9e-5,-1.058333 -0.264602,-3.175 -0.264602,-3.175 -1.322917,0.529167 -3.968751,0.529167 -3.968751,0.529167 0,0 -2.645835,0 -3.968753,-0.529167 z"/><path style="font-variation-settings:normal;display:inline;opacity:1;vector-effect:none;fill:url(#linearGradient4092);fill-opacity:1;stroke:none;stroke-width:1.05833;stroke-linecap:butt;stroke-linejoin:round;stroke-miterlimit:2.4;stroke-dasharray:none;stroke-dashoffset:0;stroke-opacity:1;-inkscape-stroke:none;stop-color:#000;stop-opacity:1" id="path33052" d="m 29.36874,11.112498 0.79375,3.175 -1.852082,0.264583 -0.529207,-2.910416 1.587539,-0.529167"/><path style="font-variation-settings:normal;opacity:1;fill:url(#linearGradient2373);fill-opacity:1;stroke:none;stroke-width:1.05833;stroke-linecap:round;stroke-linejoin:round;stroke-miterlimit:4;stroke-dasharray:none;stroke-dashoffset:0;stroke-opacity:1;stop-color:#000;stop-opacity:1" id="path37937" d="m 29.633285,11.112498 c 0,0 2.116666,-1.058333 2.116666,-3.1749991 0,-1.0583332 -1.001019,-2.1166664 -2.116666,-2.1166664 -2.116667,0 -3.704167,1.5874998 -3.704166,5.5562495"/><path style="font-variation-settings:normal;opacity:1;fill:url(#linearGradient4090);fill-opacity:1;stroke:none;stroke-width:1.05833;stroke-linecap:round;stroke-linejoin:round;stroke-miterlimit:4;stroke-dasharray:none;stroke-dashoffset:0;stroke-opacity:1;stop-color:#000;stop-opacity:1" id="path38253" d="m 30.162451,6.3499991 c 0,2.645833 -0.79375,3.7041659 -2.116666,4.7624989 2.116666,0 3.704166,-1.8520826 3.704167,-3.174999 1e-6,-0.8819444 -1.587501,-1.5874999 -1.587501,-1.5874999 z"/><path style="display:inline;opacity:1;fill:none;fill-opacity:1;stroke:#000;stroke-width:1.05833;stroke-linecap:round;stroke-linejoin:round;stroke-dasharray:none;stroke-opacity:1" id="path33056" d="m 22.224951,11.112498 c 0,0 -0.52913,2.116667 -0.529112,3.175 1.587501,0.529167 4.233336,0.529167 4.233336,0.529167 0,0 2.645835,0 4.233335,-0.529167 -1.9e-5,-1.058333 -0.529226,-3.175 -0.529226,-3.175 -1.322917,0.529167 -3.704167,0.529167 -3.704167,0.529167 0,0 -2.381248,0 -3.704166,-0.529167 z"/><path style="font-variation-settings:normal;opacity:1;fill:#a6a6a6;fill-opacity:1;stroke:#000;stroke-width:1.05833;stroke-linecap:round;stroke-linejoin:round;stroke-miterlimit:4;stroke-dasharray:none;stroke-dashoffset:0;stroke-opacity:1;stop-color:#000;stop-opacity:1" id="path33074" d="m 24.870786,2.3812497 h 2.116667"/><path style="display:inline;fill:none;fill-opacity:1;stroke:#000;stroke-width:1.05833;stroke-linecap:butt;stroke-linejoin:round;stroke-dasharray:none;stroke-opacity:1" id="path65119-2" d="m 102.39374,12.699998 c -1.32292,0.529167 -3.968746,0.529167 -3.968746,0.529167 0,0 -2.645841,0 -3.968757,-0.529167" transform="translate(-72.495868)"/><path style="font-variation-settings:normal;opacity:1;fill:none;fill-opacity:1;stroke:#000;stroke-width:1.05833;stroke-linecap:round;stroke-linejoin:round;stroke-miterlimit:4;stroke-dasharray:none;stroke-dashoffset:0;stroke-opacity:1;stop-color:#000;stop-opacity:1" id="path38251" d="m 29.633285,11.112498 c 0,0 2.116666,-1.058333 2.116666,-3.1749991 0,-1.0583332 -1.001019,-2.1166664 -2.116666,-2.1166664 -2.116667,0 -3.704167,1.5874998 -3.704166,5.5562495"/></g></g><g id="layer5" style="display:none" transform="translate(-89.958321)"><ellipse style="display:inline;fill:#000;fill-opacity:1;stroke:none;stroke-width:1.05833;stroke-linecap:round;stroke-linejoin:round;stroke-dasharray:none;stroke-opacity:1" id="path63964-6-1" cx="97.896" cy="12.435" rx=".529" ry=".529"/><ellipse style="display:inline;fill:#000;fill-opacity:1;stroke:none;stroke-width:1.05833;stroke-linecap:round;stroke-linejoin:round;stroke-dasharray:none;stroke-opacity:1" id="path63964-6-7" cx="96.308" cy="12.435" rx=".529" ry=".529"/></g></svg>