<svg xmlns="http://www.w3.org/2000/svg" xmlns:svg="http://www.w3.org/2000/svg" xmlns:xlink="http://www.w3.org/1999/xlink" id="svg5" width="64" height="64" version="1.1" viewBox="0 0 16.933 16.933"><defs id="defs2"><linearGradient id="wood_black_accent"><stop style="stop-color:#ba845f;stop-opacity:1" id="stop5970" offset="0"/></linearGradient><linearGradient id="wood_black_fill"><stop style="stop-color:#995e33;stop-opacity:1" id="stop5940" offset="0"/></linearGradient><linearGradient id="wood_white_shade"><stop style="stop-color:#d0b793;stop-opacity:1" id="stop3347" offset="0"/></linearGradient><linearGradient id="wood_white_fill"><stop style="stop-color:#f9e7d2;stop-opacity:1" id="stop3028" offset="0"/></linearGradient><linearGradient id="white_fill"><stop style="stop-color:#fff;stop-opacity:1" id="stop2367" offset="0"/></linearGradient><linearGradient id="white_shade" gradientTransform="translate(-5.8013919e-8,2.1166665)"><stop style="stop-color:#ccc;stop-opacity:1" id="stop45894" offset="0"/></linearGradient><linearGradient id="linearGradient45642"><stop style="stop-color:#000;stop-opacity:.2" id="stop45640" offset="0"/></linearGradient><linearGradient id="black_accent" gradientTransform="scale(0.07000432)"><stop style="stop-color:#8c8c8c;stop-opacity:1" id="stop52163" offset="0"/></linearGradient><linearGradient id="black_fill" gradientTransform="matrix(0.07000432,0,0,0.07000432,-53.975025,2.1166665)"><stop style="stop-color:#595959;stop-opacity:1" id="stop51990" offset="0"/></linearGradient><linearGradient id="linearGradient2381" x1="76.2" x2="84.667" y1="12.965" y2="12.965" gradientUnits="userSpaceOnUse" xlink:href="#white_fill"/><linearGradient id="linearGradient2383" x1="19.05" x2="22.225" y1="5.821" y2="5.821" gradientUnits="userSpaceOnUse" xlink:href="#white_fill"/><linearGradient id="linearGradient2385" x1="29.633" x2="32.808" y1="5.821" y2="5.821" gradientUnits="userSpaceOnUse" xlink:href="#white_fill"/><linearGradient id="linearGradient2387" x1="26.458" x2="29.633" y1="3.44" y2="3.44" gradientUnits="userSpaceOnUse" xlink:href="#white_fill"/><linearGradient id="linearGradient2389" x1="22.225" x2="25.4" y1="3.44" y2="3.44" gradientUnits="userSpaceOnUse" xlink:href="#white_fill"/><linearGradient id="linearGradient2391" x1="20.637" x2="31.221" y1="8.202" y2="8.202" gradientUnits="userSpaceOnUse" xlink:href="#white_fill"/><linearGradient id="linearGradient4094" gradientTransform="translate(-5.8013919e-8,2.1166665)" gradientUnits="userSpaceOnUse" xlink:href="#white_shade"/><linearGradient id="linearGradient4096" gradientTransform="translate(-5.8013919e-8,2.1166665)" gradientUnits="userSpaceOnUse" xlink:href="#white_shade"/><linearGradient id="linearGradient22730" x1="4.233" x2="103.049" y1="24.342" y2="24.342" gradientTransform="matrix(1,0,0,1.25,0.79374989,-3.0427069)" gradientUnits="userSpaceOnUse" xlink:href="#linearGradient45642"/></defs><metadata id="metadata505"/><g id="layer6" transform="translate(-71.966652)"><path style="font-variation-settings:normal;vector-effect:none;fill:url(#linearGradient22730);fill-opacity:1;stroke:none;stroke-width:1.25861;stroke-linecap:round;stroke-linejoin:round;stroke-miterlimit:4;stroke-dasharray:none;stroke-dashoffset:0;stroke-opacity:1;-inkscape-stroke:none;stop-color:#000" id="use60280" d="m 5.0270826,14.816665 c 0,0.992188 2.645833,1.322916 4.2333328,1.322916 1.5874976,0 4.2333306,-0.330728 4.2333306,-1.322916 0,-0.992187 -2.778792,-1.322916 -4.2333306,-1.322916 -1.4545399,0 -4.2333328,0.330729 -4.2333328,1.322916 z" class="UnoptimicedTransforms" transform="matrix(1.215278,0,0,0.99999995,69.561534,9.6337469e-7)"/><g id="g28618" style="display:inline" transform="translate(54.504191)"><path style="font-variation-settings:normal;display:inline;opacity:1;fill:url(#linearGradient2391);fill-opacity:1;stroke:none;stroke-width:1.05833;stroke-linecap:butt;stroke-linejoin:round;stroke-miterlimit:4;stroke-dasharray:none;stroke-dashoffset:0;stroke-opacity:1;stop-color:#000;stop-opacity:1" id="path45261" d="M 22.754133,12.964582 20.637465,5.8208325 c 3.175,2.9104163 3.175,1.3229165 3.175,-2.3812496 2.116666,2.6458329 2.116666,2.6458329 4.233333,0 0,3.7041661 -0.01298,5.3096054 3.174999,2.3812496 l -2.116665,7.1437495"/><path style="font-variation-settings:normal;display:inline;opacity:1;vector-effect:none;fill:url(#linearGradient4096);fill-opacity:1;stroke:none;stroke-width:1.05833;stroke-linecap:butt;stroke-linejoin:round;stroke-miterlimit:2.4;stroke-dasharray:none;stroke-dashoffset:0;stroke-opacity:1;-inkscape-stroke:none;stop-color:#000;stop-opacity:1" id="path28748" d="m 29.104131,12.964582 -2.116667,0.264583 c 0,0 1.058334,-2.645833 1.058334,-6.8791659 0.79375,1.0583332 2.381249,1.0583332 2.381249,1.0583332 0,0 -1.587499,3.7041657 -1.322916,5.5562497 z"/><path style="font-variation-settings:normal;display:inline;opacity:1;fill:none;fill-opacity:1;stroke:#000;stroke-width:1.05833;stroke-linecap:butt;stroke-linejoin:round;stroke-miterlimit:4;stroke-dasharray:none;stroke-dashoffset:0;stroke-opacity:1;stop-color:#000;stop-opacity:1" id="path28743" d="m 22.224965,11.112498 -1.5875,-5.2916655 c 3.175,2.9104163 3.175,1.3229165 3.175,-2.3812496 2.116666,3.4395828 2.116666,3.4395828 4.233333,0 0,3.7041661 -0.01298,5.3096054 3.174999,2.3812496 l -1.5875,5.2916655"/><ellipse style="font-variation-settings:normal;display:inline;vector-effect:none;fill:url(#linearGradient2389);fill-opacity:1;stroke:#000;stroke-width:1.05833;stroke-linecap:butt;stroke-linejoin:round;stroke-miterlimit:4;stroke-dasharray:none;stroke-dashoffset:0;stroke-opacity:1;-inkscape-stroke:none;stop-color:#000" id="ellipse127816-5" cx="23.812" cy="3.44" rx="1.058" ry="1.058"/><ellipse style="font-variation-settings:normal;display:inline;vector-effect:none;fill:url(#linearGradient2387);fill-opacity:1;stroke:#000;stroke-width:1.05833;stroke-linecap:butt;stroke-linejoin:round;stroke-miterlimit:4;stroke-dasharray:none;stroke-dashoffset:0;stroke-opacity:1;-inkscape-stroke:none;stop-color:#000" id="ellipse127816-7" cx="28.046" cy="3.44" rx="1.058" ry="1.058"/><ellipse style="font-variation-settings:normal;display:inline;vector-effect:none;fill:url(#linearGradient2385);fill-opacity:1;stroke:#000;stroke-width:1.05833;stroke-linecap:butt;stroke-linejoin:round;stroke-miterlimit:4;stroke-dasharray:none;stroke-dashoffset:0;stroke-opacity:1;-inkscape-stroke:none;stop-color:#000" id="ellipse127816-1" cx="31.221" cy="5.821" rx="1.058" ry="1.058"/><ellipse style="font-variation-settings:normal;display:inline;vector-effect:none;fill:url(#linearGradient2383);fill-opacity:1;stroke:#000;stroke-width:1.05833;stroke-linecap:butt;stroke-linejoin:round;stroke-miterlimit:4;stroke-dasharray:none;stroke-dashoffset:0;stroke-opacity:1;-inkscape-stroke:none;stop-color:#000" id="ellipse127816-3" cx="20.637" cy="5.821" rx="1.058" ry="1.058"/><path style="display:inline;fill:url(#linearGradient2381);fill-opacity:1;stroke:none;stroke-width:1.05833;stroke-linecap:round;stroke-linejoin:round;stroke-dasharray:none;stroke-opacity:1" id="path55930" d="m 76.464607,11.112498 c 0,0 -0.264583,2.116667 -0.264565,3.175 1.587502,0.529167 4.233337,0.529167 4.233337,0.529167 0,0 2.645835,0 4.233335,-0.529167 -1.9e-5,-1.058333 -0.264602,-3.175 -0.264602,-3.175 -1.322917,0.529167 -3.968751,0.529167 -3.968751,0.529167 0,0 -2.645835,0 -3.968754,-0.529167 z" transform="translate(-54.504191)"/><path style="font-variation-settings:normal;display:inline;vector-effect:none;fill:url(#linearGradient4094);fill-opacity:1;stroke:none;stroke-width:1.05833;stroke-linecap:butt;stroke-linejoin:round;stroke-miterlimit:2.4;stroke-dasharray:none;stroke-dashoffset:0;stroke-opacity:1;-inkscape-stroke:none;stop-color:#000" id="path55932" d="m 83.872944,11.112498 0.79375,3.175 -1.852082,0.264583 -0.529207,-2.910416 1.587539,-0.529167" transform="translate(-54.504191)"/><path style="display:inline;fill:none;fill-opacity:1;stroke:#000;stroke-width:1.05833;stroke-linecap:round;stroke-linejoin:round;stroke-dasharray:none;stroke-opacity:1" id="path55934" d="m 76.729154,11.112498 c 0,0 -0.52913,2.116667 -0.529112,3.175 1.587502,0.529167 4.233337,0.529167 4.233337,0.529167 0,0 2.645835,0 4.233335,-0.529167 -1.9e-5,-1.058333 -0.529226,-3.175 -0.529226,-3.175 -1.322917,0.529167 -3.704167,0.529167 -3.704167,0.529167 0,0 -2.381248,0 -3.704167,-0.529167 z" transform="translate(-54.504191)"/><path style="display:inline;fill:none;fill-opacity:1;stroke:#000;stroke-width:1.05833;stroke-linecap:butt;stroke-linejoin:round;stroke-dasharray:none;stroke-opacity:1" id="path55936" d="m 84.402076,12.699998 c -1.32292,0.529167 -3.968746,0.529167 -3.968746,0.529167 0,0 -2.645841,0 -3.968758,-0.529167" transform="translate(-54.504191)"/></g></g><g id="layer5" style="display:none" transform="translate(-71.966652)"><ellipse style="display:inline;fill:#000;fill-opacity:1;stroke:none;stroke-width:1.05833;stroke-linecap:round;stroke-linejoin:round;stroke-dasharray:none;stroke-opacity:1" id="path63964-2" cx="78.317" cy="9.79" rx=".529" ry=".529"/><ellipse style="display:inline;fill:#000;fill-opacity:1;stroke:none;stroke-width:1.05833;stroke-linecap:round;stroke-linejoin:round;stroke-dasharray:none;stroke-opacity:1" id="path63964-9" cx="80.698" cy="9.79" rx=".529" ry=".529"/><path style="fill:#000;fill-opacity:1;stroke:#000;stroke-width:1.05833;stroke-linecap:round;stroke-linejoin:round;stroke-opacity:1;-inkscape-stroke:none;stop-color:#000" id="path75020" d="m 80.962489,7.4083323 -0.79375,0.7937499"/><path style="fill:#000;fill-opacity:1;stroke:#000;stroke-width:1.05833;stroke-linecap:round;stroke-linejoin:round;stroke-opacity:1;-inkscape-stroke:none;stop-color:#000" id="path75298" d="m 78.052073,7.4083323 0.793749,0.7937499"/></g></svg>